<?xml version="1.0" encoding="iso-8859-1"?>
<!-- Generator: Adobe Illustrator 18.0.0, SVG Export Plug-In . SVG Version: 6.00 Build 0)  -->
<!DOCTYPE svg PUBLIC "-//W3C//DTD SVG 1.1//EN" "http://www.w3.org/Graphics/SVG/1.1/DTD/svg11.dtd">
<svg version="1.1" id="Capa_1" xmlns="http://www.w3.org/2000/svg" xmlns:xlink="http://www.w3.org/1999/xlink" x="0px" y="0px"
	 viewBox="0 0 462.236 462.236" style="enable-background:new 0 0 462.236 462.236;" xml:space="preserve">
<g>
	<path d="M448.934,207.712c-10.469-10.469-24.391-16.234-39.201-16.234H272.41l8.783-4.952c7.348-4.142,11.206-12.489,9.6-20.77
		c-2.055-10.592-12.347-17.536-22.935-15.482v0c-6.318,1.226-11.475,5.421-14.054,11.055l-0.737-5.632
		c-1.413-10.788-9.537-19.428-20.218-21.5c-6.616-1.282-13.34,0.087-18.926,3.858c-5.587,3.771-9.372,9.493-10.655,16.111
		c-2.072,10.681,2.903,21.447,12.381,26.79l18.663,10.521l-174.816,0.031c-14.316-0.092-28.661,5.305-39.561,16.203
		C7.08,220.567,0,237.656,0,255.83c0,18.175,7.08,35.264,19.935,48.119c15.837,15.837,36.884,24.559,59.264,24.559h350.596
		c2.762,0,5-2.239,5-5s-2.238-5-5-5c-19.709,0-38.244-7.682-52.192-21.63c-4.228-4.228-7.699-8.979-10.404-14.166
		c0,0,56.717,0.028,57.39-0.007c9.205-0.491,17.854-4.349,24.348-10.859c5.095-5.096,8.801-11.138,11.01-17.942
		C465.312,237.57,461.093,219.871,448.934,207.712z M243.626,232.518c0.437,0.118,0.875,0.174,1.307,0.174
		c2.204,0,4.222-1.469,4.824-3.698l5.336-19.757c10.135,19.432,14.209,41.476,11.639,63.474h-29.968
		c2.658-24.802-2.423-49.616-14.534-71.234h24.601l-6.728,24.91C239.383,229.053,240.96,231.798,243.626,232.518z M265.114,282.712
		c-2.665,12.765-7.525,24.771-14.489,35.796h-28.401c6.259-11.149,10.629-23.143,13.044-35.796H265.114z M275.304,282.712h30.418
		c-2.666,12.766-7.527,24.772-14.489,35.796H262.26C268.52,307.359,272.889,295.365,275.304,282.712z M307.341,272.712H276.8
		c1.891-17.649-0.134-35.305-5.823-51.811l7.44,7.347c1.965,1.94,5.13,1.921,7.071-0.044c1.94-1.965,1.921-5.13-0.044-7.071
		l-19.904-19.656h25.709C304.615,222.684,310.26,247.729,307.341,272.712z M262.099,168.241c0.535-4.089,3.615-7.365,7.663-8.15
		c5.174-1.004,10.209,2.391,11.214,7.569c0.785,4.049-1.102,8.13-4.693,10.155l-16.667,9.396L262.099,168.241z M213.085,156.07
		c0.775-3.996,3.06-7.45,6.433-9.727c2.548-1.72,5.486-2.613,8.493-2.613c0.974,0,1.956,0.094,2.933,0.284
		c6.449,1.251,11.354,6.468,12.207,12.981l3.955,30.216l-26.546-14.966C214.838,169.019,211.834,162.519,213.085,156.07z
		 M210.605,201.478c13.366,21.207,19.011,46.251,16.092,71.234H97.427c0.306-0.286,0.613-0.568,0.911-0.866
		c5.09-5.09,8.794-11.125,11.009-17.939c0-0.001,0-0.002,0.001-0.003c5.368-16.333,1.148-34.032-11.01-46.191
		c-2.336-2.336-4.838-4.403-7.456-6.234H210.605z M91.267,264.775c-10.631,10.632-27.943,10.632-38.588,0
		c-2.119-2.12-3.743-4.663-4.78-7.433h49.058C95.418,260.04,93.517,262.525,91.267,264.775z M27.006,296.877
		C16.04,285.911,10,271.333,10,255.83s6.04-30.081,17.006-41.047c17.717-17.717,46.544-17.717,64.261,0
		c8.628,8.628,12.126,20.835,9.526,32.559H41.682c-1.403,0-2.741,0.589-3.688,1.624c-0.947,1.035-1.416,2.42-1.292,3.817
		c0.636,7.186,3.799,13.956,8.908,19.065c6.86,6.852,15.748,10.469,24.748,10.856l0.306,0.007c0.876,0.031,154.415,0,154.415,0
		c-2.666,12.765-7.526,24.772-14.489,35.796H79.199C59.49,318.508,40.954,310.826,27.006,296.877z M370.531,303.949
		c5.851,5.851,12.414,10.731,19.491,14.559h-87.155c6.259-11.148,10.629-23.142,13.045-35.796h0.287h39.923
		C359.512,290.63,364.346,297.763,370.531,303.949z M450.439,250.798c-1.723,5.305-4.607,10.008-8.58,13.981
		c-4.72,4.732-10.995,7.546-17.677,7.933H317.408c2.658-24.802-2.423-49.616-14.534-71.234h106.859
		c12.14,0,23.55,4.725,32.131,13.306C451.339,224.259,454.627,238.053,450.439,250.798z"/>
	<path d="M421.734,258.411h-85.28c-2.762,0-5,2.239-5,5s2.238,5,5,5h85.28c2.762,0,5-2.239,5-5S424.496,258.411,421.734,258.411z"/>
	<path d="M108.658,263.411c0,2.761,2.239,5,5,5h34.112c2.761,0,5-2.239,5-5s-2.239-5-5-5h-34.112
		C110.897,258.411,108.658,260.65,108.658,263.411z"/>
	<path d="M163.76,268.411h12.792c2.761,0,5-2.239,5-5s-2.239-5-5-5H163.76c-2.761,0-5,2.239-5,5S160.999,268.411,163.76,268.411z"/>
</g>
<g>
</g>
<g>
</g>
<g>
</g>
<g>
</g>
<g>
</g>
<g>
</g>
<g>
</g>
<g>
</g>
<g>
</g>
<g>
</g>
<g>
</g>
<g>
</g>
<g>
</g>
<g>
</g>
<g>
</g>
</svg>
